<svg clip-rule="evenodd" fill-rule="evenodd" stroke-miterlimit="3.8637" viewBox="0 0 560 400" xmlns="http://www.w3.org/2000/svg"><g transform="matrix(.731444 0 0 .729482 1083.44 -7466.67)"><path d="m-977.384 10506.5c4.008-3.2 8.016-8.8 9.619-16 1.604-8.8.802-14.4-1.603-22.4v-40.1h-19.238s-24.854-2.4-29.654 7.2v-7.2h-8.02s-39.28-3.2-49.7 21.6l-13.63-29.6-12.02 24.8-12.02-24-17.64 34.4-21.64-40-22.45 40.8c-1.6-12.8-11.22-27.2-33.66-27.2-32.87 0-37.68 23.2-37.68 44.9 0 10.4 2.41 22.4 10.42 30.4h-108.21l37.67 84.2h45.69l8.02-17.6c8.01 12 21.64 20.8 37.67 20.8 8.82 0 16.84-2.4 24.05-7.2v4.8h129.06s5.61.8 7.21-3.2v3.2h67.336v-4.8c7.214 4.8 16.031 8 24.849 8 8.817 0 17.635-3.2 24.048-8v20l40.881-17.6v-21.6c7.214-2.4 22.444-9.7 22.444-28.1 0-28-18.436-32.1-30.46-32.1h-32.865v4.9c-7.215-4.9-15.231-7.3-24.048-7.3-4.81 0-9.619 1.6-14.429 4z" fill="#1a1a18" stroke="#1a1a18" stroke-width="1.12"/><path d="m-933.296 10593.9v-83.3h21.643s28.857-3.3 28.857 25.6c0 20-21.643 23.3-21.643 23.3v22.4z" fill="#e2000f" fill-rule="nonzero"/><path d="m-933.296 10593.9v-83.3h21.643s28.857-3.3 28.857 25.6c0 20-21.643 23.3-21.643 23.3v22.4z" fill="none" stroke="#e2000f" stroke-miterlimit="2.9238" stroke-width="1.96"/><path d="m-926.082 10517.8v66.5l14.429-5.6v-24.1s21.643-.8 21.643-17.6c0-17.6-15.23-18.4-15.23-18.4h-20.842z" fill="#ffec00" fill-rule="nonzero"/><path d="m-926.082 10517.8v66.5l14.429-5.6v-24.1s21.643-.8 21.643-17.6c0-17.6-15.23-18.4-15.23-18.4h-20.842z" fill="none" stroke="#e2000f" stroke-miterlimit="2.9238" stroke-width="1.96"/><path d="m-933.296 10593.9v-83.3h21.643s9.619-.8 9.619 3.2-2.405 4-2.405 4h-21.643v66.5z" fill="#fff" fill-rule="nonzero"/><path d="m-933.296 10593.9v-83.3h21.643s9.619-.8 9.619 3.2-2.405 4-2.405 4h-21.643v66.5z" fill="none" stroke="#e2000f" stroke-miterlimit="2.9238" stroke-width="1.96"/><path d="m-911.653 10530.6s7.214-1.6 7.214 4.8-7.214 4.8-7.214 4.8z" fill="#e2000f" fill-rule="nonzero"/><path d="m-911.653 10530.6s7.214-1.6 7.214 4.8-7.214 4.8-7.214 4.8z" fill="none" stroke="#e2000f" stroke-miterlimit="2.9238" stroke-width="1.96"/><path d="m1327.45 366.586h-99.98v75.741h-12.11v-75.741h-99.98v269.638h99.98v-81.8h12.11v81.8h99.98z" fill="#e2000f" fill-rule="nonzero" transform="matrix(.264583 0 0 .264583 -1345.79 10413.6)"/><path d="m1327.45 366.586h-99.98v75.741h-12.11v-75.741h-99.98v269.638h99.98v-81.8h12.11v81.8h99.98z" fill="none" stroke="#e2000f" stroke-miterlimit="2.9238" stroke-width="7.39" transform="matrix(.264583 0 0 .264583 -1345.79 10413.6)"/><path d="m1300.18 393.853h-45.44v75.741h-66.65v-75.741h-48.47v215.104h48.47v-81.8h66.65v81.8h45.44z" fill="#ffec00" fill-rule="nonzero" transform="matrix(.264583 0 0 .264583 -1345.79 10413.6)"/><path d="m1300.18 393.853h-45.44v75.741h-66.65v-75.741h-48.47v215.104h48.47v-81.8h66.65v81.8h45.44z" fill="none" stroke="#e2000f" stroke-miterlimit="2.9238" stroke-width="7.39" transform="matrix(.264583 0 0 .264583 -1345.79 10413.6)"/><path d="m1188.09 393.853h-48.47v215.104l-24.24 27.267v-269.638h99.98z" fill="#fff" fill-rule="nonzero" transform="matrix(.264583 0 0 .264583 -1345.79 10413.6)"/><path d="m1188.09 393.853h-48.47v215.104l-24.24 27.267v-269.638h99.98z" fill="none" stroke="#e2000f" stroke-miterlimit="2.9238" stroke-width="7.39" transform="matrix(.264583 0 0 .264583 -1345.79 10413.6)"/><path d="m1227.47 366.586h99.98l-27.27 27.267h-45.44v75.741h-66.65l27.27-27.267h12.11z" fill="#fff" fill-rule="nonzero" transform="matrix(.264583 0 0 .264583 -1345.79 10413.6)"/><path d="m1227.47 366.586h99.98l-27.27 27.267h-45.44v75.741h-66.65l27.27-27.267h12.11z" fill="none" stroke="#e2000f" stroke-miterlimit="2.9238" stroke-width="7.39" transform="matrix(.264583 0 0 .264583 -1345.79 10413.6)"/><path d="m1254.74 608.957v-81.8l-27.27 27.267v81.8z" fill="#fff" fill-rule="nonzero" transform="matrix(.264583 0 0 .264583 -1345.79 10413.6)"/><path d="m1254.74 608.957v-81.8l-27.27 27.267v81.8z" fill="none" stroke="#e2000f" stroke-miterlimit="2.9238" stroke-width="7.39" transform="matrix(.264583 0 0 .264583 -1345.79 10413.6)"/><path d="m-1097.62 10581.9h28.85s24.85 0 24.85-25.7c0-8.8-3.2-14.4-7.21-18.4l11.22-27.2h-28.86s-22.44 0-22.44 25.6c0 8 2.4 12.8 5.61 16.8h-12.02z" fill="#e2000f"/><path d="m-1097.62 10581.9h28.85s24.85 0 24.85-25.7c0-8.8-3.2-14.4-7.21-18.4l11.22-27.2h-28.86s-22.44 0-22.44 25.6c0 8 2.4 12.8 5.61 16.8h-12.02z" fill="none" stroke="#e2000f" stroke-miterlimit="2.9238" stroke-width="1.96"/><path d="m-1061.55 10537.8c-1.6 0-3.21-1.6-3.21-3.2s1.61-3.2 3.21-3.2h5.61l5.61-13.6h-18.44s-15.23 0-15.23 18.4c0 12.8 7.22 16 12.03 16.8 1.6 0 3.2 1.6 3.2 3.2s-1.6 3.3-3.2 3.3h-25.65l7.21 15.2h21.64s17.64 0 17.64-18.5c0-11.2-6.41-16-11.22-18.4z" fill="#ffec00"/><path d="m-1061.55 10537.8c-1.6 0-3.21-1.6-3.21-3.2s1.61-3.2 3.21-3.2h5.61l5.61-13.6h-18.44s-15.23 0-15.23 18.4c0 12.8 7.22 16 12.03 16.8 1.6 0 3.2 1.6 3.2 3.2s-1.6 3.3-3.2 3.3h-25.65l7.21 15.2h21.64s17.64 0 17.64-18.5c0-11.2-6.41-16-11.22-18.4z" fill="none" stroke="#e2000f" stroke-miterlimit="2.9238" stroke-width="1.96"/><path d="m-1097.62 10560.3 7.21 15.2-7.21 6.4v-28.9h12.02c4.81 4.8 10.42 6.5 14.43 7.3z" fill="#fff"/><path d="m-1097.62 10560.3 7.21 15.2-7.21 6.4v-28.9h12.02c4.81 4.8 10.42 6.5 14.43 7.3z" fill="none" stroke="#e2000f" stroke-miterlimit="2.9238" stroke-width="1.96"/><path d="m-1081.59 10546.6c-1.6-2.4-2.41-6.4-2.41-11.2 0-20 19.24-18.4 15.23-18.4-3.2 0 18.44 0 18.44 0l10.42-7.2h-28.86s-22.44 0-22.44 25.6c0 6.4 1.6 11.2 4.01 14.4.8.8 1.6 1.6 3.2 1.6 1.61 0 3.21-1.6 3.21-3.2 0 0-.8-.8-.8-1.6z" fill="#fff"/><path d="m-1081.59 10546.6c-1.6-2.4-2.41-6.4-2.41-11.2 0-20 19.24-18.4 15.23-18.4-3.2 0 18.44 0 18.44 0l10.42-7.2h-28.86s-22.44 0-22.44 25.6c0 6.4 1.6 11.2 4.01 14.4.8.8 1.6 1.6 3.2 1.6 1.61 0 3.21-1.6 3.21-3.2 0 0-.8-.8-.8-1.6z" fill="none" stroke="#e2000f" stroke-miterlimit="2.9238" stroke-width="1.96"/><path d="m242.842 636.224h54.534l115.126-269.638h-145.423v36.356l-36.355-36.356-33.326 33.326v-33.326h-148.453l115.127 269.638h54.533l12.119-27.267z" fill="#e2000f" fill-rule="nonzero" transform="matrix(.264583 0 0 .264583 -1345.79 10413.6)"/><path d="m-1284.39 10510.6-8.82 8.8v-8.8h-39.28l30.46 71.3h14.43l3.21-7.2 3.2 7.2h14.43l30.46-71.3h-38.47v9.6zm-37.68 7.2 24.05 56.9" fill="none" stroke="#e2000f" stroke-miterlimit="2.9238" stroke-width="1.96"/><path d="m282.227 608.957h-24.237l-27.266-54.533-27.267 54.533h-24.237l-90.889-215.104h75.741v87.859l66.652-69.681 66.652 69.681v-87.859h75.741z" fill="#ffec00" fill-rule="nonzero" transform="matrix(.264583 0 0 .264583 -1345.79 10413.6)"/><path d="m282.227 608.957h-24.237l-27.266-54.533-27.267 54.533h-24.237l-90.889-215.104h75.741v87.859l66.652-69.681 66.652 69.681v-87.859h75.741z" fill="none" stroke="#e2000f" stroke-miterlimit="2.9238" stroke-width="7.39" transform="matrix(.264583 0 0 .264583 -1345.79 10413.6)"/><path d="m197.398 366.586h-148.453l115.127 269.638 15.148-27.267-90.889-215.104h75.741z" fill="#fff" fill-rule="nonzero" transform="matrix(.264583 0 0 .264583 -1345.79 10413.6)"/><path d="m197.398 366.586h-148.453l115.127 269.638 15.148-27.267-90.889-215.104h75.741z" fill="none" stroke="#e2000f" stroke-miterlimit="2.9238" stroke-width="7.39" transform="matrix(.264583 0 0 .264583 -1345.79 10413.6)"/><path d="m197.398 399.912 33.326-33.326v45.445l-66.652 69.681z" fill="#fff" fill-rule="nonzero" transform="matrix(.264583 0 0 .264583 -1345.79 10413.6)"/><path d="m197.398 399.912 33.326-33.326v45.445l-66.652 69.681z" fill="none" stroke="#e2000f" stroke-miterlimit="2.9238" stroke-width="7.39" transform="matrix(.264583 0 0 .264583 -1345.79 10413.6)"/><path d="m267.079 366.586v36.356l30.297 78.77v-87.859h75.741l39.385-27.267z" fill="#fff" fill-rule="nonzero" transform="matrix(.264583 0 0 .264583 -1345.79 10413.6)"/><path d="m267.079 366.586v36.356l30.297 78.77v-87.859h75.741l39.385-27.267z" fill="none" stroke="#e2000f" stroke-miterlimit="2.9238" stroke-width="7.39" transform="matrix(.264583 0 0 .264583 -1345.79 10413.6)"/><path d="m-1178.58 10465.7h-1.61s-2.4-30.5-28.85-30.5c-27.26 0-29.66 21.6-29.66 37.7 0 15.2 6.41 33.6 29.66 33.6h30.46z" fill="#e2000f" fill-rule="nonzero"/><path d="m-1178.58 10465.7h-1.61s-2.4-30.5-28.85-30.5c-27.26 0-29.66 21.6-29.66 37.7 0 15.2 6.41 33.6 29.66 33.6h30.46z" fill="none" stroke="#e2000f" stroke-miterlimit="2.9238" stroke-width="1.96"/><path d="m-1185.8 10500.1h-23.24s-22.45 3.2-22.45-27.2c0-30.5 15.23-30.5 22.45-30.5 8.01 0 21.64 8 21.64 23.3h-14.43s0-7.2-8.02-7.2c-8.01 0-6.41 7.2-6.41 7.2v12s-1.6 7.2 6.41 7.2h10.43v-7.2h-3.21v-4.8h15.23v27.2z" fill="#ffec00" fill-rule="nonzero"/><path d="m-1185.8 10500.1h-23.24s-22.45 3.2-22.45-27.2c0-30.5 15.23-30.5 22.45-30.5 8.01 0 21.64 8 21.64 23.3h-14.43s0-7.2-8.02-7.2c-8.01 0-6.41 7.2-6.41 7.2v12s-1.6 7.2 6.41 7.2h10.43v-7.2h-3.21v-4.8h15.23v27.2z" fill="none" stroke="#e2000f" stroke-miterlimit="2.9238" stroke-width="1.96"/><path d="m-1185.8 10472.9 5.61-7.2h-28.85v12s-.81 7.2 10.42 7.2v-7.2h-3.21v-4.8z" fill="#fff"/><path d="m-1185.8 10472.9 5.61-7.2h-28.85v12s-.81 7.2 10.42 7.2v-7.2h-3.21v-4.8z" fill="none" stroke="#e2000f" stroke-miterlimit="2.9238" stroke-width="1.96"/><path d="m-1226.68 10492.1c.8 1.6.8 4-.8 4.8s-4.01.8-4.81-.8c-4.81-6.4-6.41-15.2-6.41-23.2 0-15.3 3.2-37.7 29.66-37.7 4 0 8.01.8 10.42 2.4 1.6.8 2.4 3.2 1.6 4.8s-2.4 2.4-4.81 1.6c-3.21-1.6-5.61-1.6-8.02-1.6-8.01 0-22.44 0-22.44 30.5 0 8.8 2.41 15.2 5.61 19.2z" fill="#fff" fill-rule="nonzero"/><path d="m-1226.68 10492.1c.8 1.6.8 4-.8 4.8s-4.01.8-4.81-.8c-4.81-6.4-6.41-15.2-6.41-23.2 0-15.3 3.2-37.7 29.66-37.7 4 0 8.01.8 10.42 2.4 1.6.8 2.4 3.2 1.6 4.8s-2.4 2.4-4.81 1.6c-3.21-1.6-5.61-1.6-8.02-1.6-8.01 0-22.44 0-22.44 30.5 0 8.8 2.41 15.2 5.61 19.2z" fill="none" stroke="#e2000f" stroke-miterlimit="2.9238" stroke-width="1.96"/><path d="m876.036 351.438h-293.874l42.414-24.237 103.008-206.016v-57.563z" fill="#e2000f" fill-rule="nonzero" transform="matrix(.264583 0 0 .264583 -1345.79 10413.6)"/><path d="m876.036 351.438h-293.874l42.414-24.237 103.008-206.016v-57.563z" fill="none" stroke="#e2000f" stroke-miterlimit="2.9238" stroke-width="7.39" transform="matrix(.264583 0 0 .264583 -1345.79 10413.6)"/><path d="m727.584 121.185 103.008 206.016h-206.016z" fill="#ffec00" fill-rule="nonzero" transform="matrix(.264583 0 0 .264583 -1345.79 10413.6)"/><path d="m727.584 121.185 103.008 206.016h-206.016z" fill="none" stroke="#e2000f" stroke-miterlimit="2.9238" stroke-width="7.39" transform="matrix(.264583 0 0 .264583 -1345.79 10413.6)"/><path d="m727.584 63.622-145.422 287.816 42.414-24.237 103.008-206.016z" fill="#fff" fill-rule="nonzero" transform="matrix(.264583 0 0 .264583 -1345.79 10413.6)"/><path d="m727.584 63.622-145.422 287.816 42.414-24.237 103.008-206.016z" fill="none" stroke="#e2000f" stroke-miterlimit="2.9238" stroke-width="7.39" transform="matrix(.264583 0 0 .264583 -1345.79 10413.6)"/><path d="m727.584 212.075 36.356 69.681h-72.712z" fill="#e2000f" fill-rule="nonzero" transform="matrix(.264583 0 0 .264583 -1345.79 10413.6)"/><path d="m727.584 212.075 36.356 69.681h-72.712z" fill="none" stroke="#e2000f" stroke-miterlimit="2.9238" stroke-width="7.39" transform="matrix(.264583 0 0 .264583 -1345.79 10413.6)"/><path d="m727.584 260.549 36.356 21.207h-72.712z" fill="#fff" fill-rule="nonzero" transform="matrix(.264583 0 0 .264583 -1345.79 10413.6)"/><path d="m727.584 260.549 36.356 21.207h-72.712z" fill="none" stroke="#e2000f" stroke-miterlimit="2.9238" stroke-width="7.39" transform="matrix(.264583 0 0 .264583 -1345.79 10413.6)"/><path d="m966.925 81.8-45.444 99.978-45.445-99.978-124.215 269.638h339.319z" fill="#e2000f" fill-rule="nonzero" transform="matrix(.264583 0 0 .264583 -1345.79 10413.6)"/><path d="m966.925 81.8-45.444 99.978-45.445-99.978-124.215 269.638h339.319z" fill="none" stroke="#e2000f" stroke-miterlimit="2.9238" stroke-width="7.39" transform="matrix(.264583 0 0 .264583 -1345.79 10413.6)"/><path d="m794.236 327.201 81.8-178.749v-66.652l-124.215 269.638z" fill="#fff" fill-rule="nonzero" transform="matrix(.264583 0 0 .264583 -1345.79 10413.6)"/><path d="m794.236 327.201 81.8-178.749v-66.652l-124.215 269.638z" fill="none" stroke="#e2000f" stroke-miterlimit="2.9238" stroke-width="7.39" transform="matrix(.264583 0 0 .264583 -1345.79 10413.6)"/><path d="m921.481 181.778v66.652l45.444-99.978v-66.652z" fill="#fff" fill-rule="nonzero" transform="matrix(.264583 0 0 .264583 -1345.79 10413.6)"/><path d="m921.481 181.778v66.652l45.444-99.978v-66.652z" fill="none" stroke="#e2000f" stroke-miterlimit="2.9238" stroke-width="7.39" transform="matrix(.264583 0 0 .264583 -1345.79 10413.6)"/><path d="m794.236 327.201h36.356l-18.178-39.385z" fill="#ffec00" fill-rule="nonzero" transform="matrix(.264583 0 0 .264583 -1345.79 10413.6)"/><path d="m794.236 327.201h36.356l-18.178-39.385z" fill="none" stroke="#e2000f" stroke-miterlimit="2.9238" stroke-width="7.39" transform="matrix(.264583 0 0 .264583 -1345.79 10413.6)"/><path d="m921.481 248.43 45.444-99.978 81.805 178.749h-112.101l21.207-45.445-36.355 21.208-36.356-21.208 21.208 45.445h-42.415l-36.356-69.682 48.474-109.067z" fill="#ffec00" fill-rule="nonzero" transform="matrix(.264583 0 0 .264583 -1345.79 10413.6)"/><path d="m921.481 248.43 45.444-99.978 81.805 178.749h-112.101l21.207-45.445-36.355 21.208-36.356-21.208 21.208 45.445h-42.415l-36.356-69.682 48.474-109.067z" fill="none" stroke="#e2000f" stroke-miterlimit="2.9238" stroke-width="7.39" transform="matrix(.264583 0 0 .264583 -1345.79 10413.6)"/><path d="m-1031.89 10435.2s-42.49 0-42.49 35.3c0 39.3 42.49 36 42.49 36h7.21v-71.3z" fill="#e2000f" fill-rule="nonzero"/><path d="m-1031.89 10435.2s-42.49 0-42.49 35.3c0 39.3 42.49 36 42.49 36h7.21v-71.3zm0 64.9c-21.65 0-35.27-8-35.27-28.8" fill="none" stroke="#e2000f" stroke-miterlimit="2.9238" stroke-width="1.96"/><path d="m-1043.92 10462.5h9.62c.8 0 1.61.8 1.61 1.6s-.81 1.6-1.61 1.6h-9.62c-.8 0-1.6-.8-1.6-1.6s.8-1.6 1.6-1.6z" fill="#fff" fill-rule="nonzero"/><path d="m-1043.92 10462.5h9.62c.8 0 1.61.8 1.61 1.6s-.81 1.6-1.61 1.6h-9.62c-.8 0-1.6-.8-1.6-1.6s.8-1.6 1.6-1.6z" fill="none" stroke="#e2000f" stroke-miterlimit="2.9238" stroke-width="1.96"/><path d="m-1043.92 10480.9h9.62c.8 0 1.61.8 1.61 1.6s-.81 1.6-1.61 1.6h-9.62c-.8 0-1.6-.8-1.6-1.6s.8-1.6 1.6-1.6z" fill="#fff" fill-rule="nonzero"/><path d="m-1043.92 10480.9h9.62c.8 0 1.61.8 1.61 1.6s-.81 1.6-1.61 1.6h-9.62c-.8 0-1.6-.8-1.6-1.6s.8-1.6 1.6-1.6z" fill="none" stroke="#e2000f" stroke-miterlimit="2.9238" stroke-width="1.96"/><path d="m-1031.89 10500.1v-16h-12.83c-2.4 0-4-1.6-4-4s1.6-4 4-4h12.83v-10.4h-12.83c-2.4 0-4-1.6-4-4s1.6-4.1 4-4.1h12.83v-15.2c-16.03 0-35.27 7.2-35.27 28.1 0 20.8 12.82 29.6 35.27 29.6z" fill="#ffec00"/><path d="m-1031.89 10500.1v-16h-12.83c-2.4 0-4-1.6-4-4s1.6-4 4-4h12.83v-10.4h-12.83c-2.4 0-4-1.6-4-4s1.6-4.1 4-4.1h12.83v-15.2c-16.03 0-35.27 7.2-35.27 28.1 0 20.8 12.82 29.6 35.27 29.6z" fill="none" stroke="#e2000f" stroke-miterlimit="2.9238" stroke-width="1.96"/><path d="m-1025.48 10435.2h-7.21s-42.49 0-42.49 35.3c0 12.8 4.01 20.8 10.42 26.4.81.8 1.61 1.6 3.21 1.6s3.21-1.6 3.21-3.2c0-.8 0-1.6-.81-2.4-5.61-4.8-8.81-11.2-8.81-21.6 0-20.9 19.24-28.1 35.27-28.1z" fill="#fff"/><path d="m-1025.48 10435.2h-7.21s-42.49 0-42.49 35.3c0 12.8 4.01 20.8 10.42 26.4.81.8 1.61 1.6 3.21 1.6s3.21-1.6 3.21-3.2c0-.8 0-1.6-.81-2.4-5.61-4.8-8.81-11.2-8.81-21.6 0-20.9 19.24-28.1 35.27-28.1z" fill="none" stroke="#e2000f" stroke-miterlimit="2.9238" stroke-width="1.96"/><path d="m-1028.69 10506.5h28.862s24.849 0 24.849-25.6c0-8.8-3.206-15.2-7.214-18.4h5.611v-27.3h-23.246s-22.442 0-22.442 25.7c0 8 2.4 12.8 5.61 16.8h-12.03z" fill="#e2000f"/><path d="m-1028.69 10506.5h28.862s24.849 0 24.849-25.6c0-8.8-3.206-15.2-7.214-18.4h5.611v-27.3h-23.246s-22.442 0-22.442 25.7c0 8 2.4 12.8 5.61 16.8h-12.03z" fill="none" stroke="#e2000f" stroke-miterlimit="2.9238" stroke-width="1.96"/><path d="m-992.614 10463.3c-1.603 0-3.206-1.6-3.206-3.2s1.603-3.3 3.206-3.3h10.421v-14.4h-17.635s-15.232 0-15.232 18.5c0 12.8 7.22 16 12.03 16.8 1.6 0 3.202 1.6 3.202 3.2s-1.602 3.2-3.202 3.2h-18.44v15.2h21.642s17.635 0 17.635-18.4c0-11.2-6.413-16-11.223-18.4z" fill="#ffec00"/><path d="m-992.614 10463.3c-1.603 0-3.206-1.6-3.206-3.2s1.603-3.3 3.206-3.3h10.421v-14.4h-17.635s-15.232 0-15.232 18.5c0 12.8 7.22 16 12.03 16.8 1.6 0 3.202 1.6 3.202 3.2s-1.602 3.2-3.202 3.2h-18.44v15.2h21.642s17.635 0 17.635-18.4c0-11.2-6.413-16-11.223-18.4z" fill="none" stroke="#e2000f" stroke-miterlimit="2.9238" stroke-width="1.96"/><path d="m-1021.47 10484.9v15.2l-7.22 7.2v-29.6h12.03c4.81 4.8 10.42 6.4 14.43 7.2z" fill="#fff" fill-rule="nonzero"/><path d="m-1021.47 10484.9v15.2l-7.22 7.2v-29.6h12.03c4.81 4.8 10.42 6.4 14.43 7.2zm2.4-9.6c.81.8 1.61 1.6 2.41 2.4" fill="none" stroke="#e2000f" stroke-miterlimit="2.9238" stroke-width="1.96"/><path d="m-1012.65 10472.1c-1.61-2.4-2.41-6.4-2.41-11.2 0-20.1 19.24-18.5 15.232-18.5-3.202 0 17.635 0 17.635 0l5.611-7.2h-23.246s-22.442 0-22.442 25.7c0 6.4 1.6 11.2 4.01 14.4.8.8 1.6 1.6 3.2 1.6s3.21-1.6 3.21-3.2c0-.8-.8-1.6-.8-1.6z" fill="#fff"/><path d="m-1012.65 10472.1c-1.61-2.4-2.41-6.4-2.41-11.2 0-20.1 19.24-18.5 15.232-18.5-3.202 0 17.635 0 17.635 0l5.611-7.2h-23.246s-22.442 0-22.442 25.7c0 6.4 1.6 11.2 4.01 14.4.8.8 1.6 1.6 3.2 1.6s3.21-1.6 3.21-3.2c0-.8-.8-1.6-.8-1.6z" fill="none" stroke="#e2000f" stroke-miterlimit="2.9238" stroke-width="1.96"/><path d="m-1000.63 10545.8c0-20.8 16.834-36.8 36.873-36.8 20.842 0 36.874 16.8 36.874 36.8 0 20.9-16.834 36.9-36.874 36.9-20.039.8-36.873-16-36.873-36.9zm30.461 0c0-4 3.206-7.2 7.214-7.2s7.214 3.2 7.214 7.2-3.206 7.2-7.214 7.2-7.214-3.2-7.214-7.2z" fill="#e2000f"/><path d="m-1000.63 10545.8c0-20.8 16.834-36.8 36.873-36.8 20.842 0 36.874 16.8 36.874 36.8 0 20.9-16.834 36.9-36.874 36.9-20.039.8-36.873-16-36.873-36.9zm30.461 0c0-4 3.206-7.2 7.214-7.2s7.214 3.2 7.214 7.2-3.206 7.2-7.214 7.2-7.214-3.2-7.214-7.2z" fill="none" stroke="#e2000f" stroke-miterlimit="2.9238" stroke-width="1.96"/><path d="m-993.416 10545.8c0-16.8 13.628-30.4 30.461-30.4s30.46 13.6 30.46 30.4c0 16.9-13.627 30.5-30.46 30.5s-30.461-13.6-30.461-30.5zm16.032 0c0-8 6.413-14.4 14.429-14.4s14.429 6.4 14.429 14.4-6.413 14.5-14.429 14.5-14.429-6.5-14.429-14.5z" fill="#ffec00"/><path d="m-993.416 10545.8c0-16.8 13.628-30.4 30.461-30.4s30.46 13.6 30.46 30.4c0 16.9-13.627 30.5-30.46 30.5s-30.461-13.6-30.461-30.5zm16.032 0c0-8 6.413-14.4 14.429-14.4s14.429 6.4 14.429 14.4-6.413 14.5-14.429 14.5-14.429-6.5-14.429-14.5z" fill="none" stroke="#e2000f" stroke-miterlimit="2.9238" stroke-width="1.96"/><path d="m-981.392 10578.7c-17.635-10.4-24.048-32.9-13.627-50.5s32.866-24.1 50.501-13.6c1.603.8 2.404 3.2 1.603 4.8-.802 1.6-3.207 2.4-4.81 1.6-14.428-8-32.865-3.2-40.881 11.2s-3.206 32.9 11.222 40.9c1.604.8 2.405 3.2 1.604 4.8-2.405.8-4.008 1.6-5.611.8z" fill="#fff"/><path d="m-981.392 10578.7c-17.635-10.4-24.048-32.9-13.627-50.5s32.866-24.1 50.501-13.6c1.603.8 2.404 3.2 1.603 4.8-.802 1.6-3.207 2.4-4.81 1.6-14.428-8-32.865-3.2-40.881 11.2s-3.206 32.9 11.222 40.9c1.604.8 2.405 3.2 1.604 4.8-2.405.8-4.008 1.6-5.611.8z" fill="none" stroke="#e2000f" stroke-miterlimit="2.9238" stroke-width="1.96"/><path d="m-970.169 10557.8c-1.604-.8-2.405-3.2-1.604-4.8.802-1.6 3.207-1.6 4.81-.8 3.206 1.6 8.016.8 9.619-2.4s.802-7.2-2.405-9.6c-1.603-.8-2.405-3.2-1.603-4.8s3.206-2.4 4.81-1.6c6.412 4 9.619 12 5.611 19.2-4.008 7.3-12.826 9.7-19.238 4.8z" fill="#fff" fill-rule="nonzero"/><path d="m-970.169 10557.8c-1.604-.8-2.405-3.2-1.604-4.8.802-1.6 3.207-1.6 4.81-.8 3.206 1.6 8.016.8 9.619-2.4s.802-7.2-2.405-9.6c-1.603-.8-2.405-3.2-1.603-4.8s3.206-2.4 4.81-1.6c6.412 4 9.619 12 5.611 19.2-4.008 7.3-12.826 9.7-19.238 4.8z" fill="none" stroke="#e2000f" stroke-miterlimit="2.9238" stroke-width="1.96"/><path d="m988.133 366.586h-209.045v269.638h209.045l-66.652-136.334z" fill="#e2000f" fill-rule="nonzero" transform="matrix(.264583 0 0 .264583 -1345.79 10413.6)"/><path d="m988.133 366.586h-209.045v269.638h209.045l-66.652-136.334z" fill="none" stroke="#e2000f" stroke-miterlimit="2.9238" stroke-width="7.39" transform="matrix(.264583 0 0 .264583 -1345.79 10413.6)"/><path d="m845.74 608.957h-39.385v-215.104h39.385v75.741h27.267v-75.741h75.741l-57.564 103.007 54.534 112.097h-72.711v-81.8h-27.267z" fill="#ffec00" fill-rule="nonzero" transform="matrix(.264583 0 0 .264583 -1345.79 10413.6)"/><path d="m845.74 608.957h-39.385v-215.104h39.385v75.741h27.267v-75.741h75.741l-57.564 103.007 54.534 112.097h-72.711v-81.8h-27.267z" fill="none" stroke="#e2000f" stroke-miterlimit="2.9238" stroke-width="7.39" transform="matrix(.264583 0 0 .264583 -1345.79 10413.6)"/><path d="m845.74 393.853h-39.385v215.104l-27.267 27.267v-269.638h81.8z" fill="#fff" fill-rule="nonzero" transform="matrix(.264583 0 0 .264583 -1345.79 10413.6)"/><path d="m845.74 393.853h-39.385v215.104l-27.267 27.267v-269.638h81.8z" fill="none" stroke="#e2000f" stroke-miterlimit="2.9238" stroke-width="7.39" transform="matrix(.264583 0 0 .264583 -1345.79 10413.6)"/><path d="m948.748 393.853h-75.741v75.741h-12.119v-103.008h127.245z" fill="#fff" fill-rule="nonzero" transform="matrix(.264583 0 0 .264583 -1345.79 10413.6)"/><path d="m948.748 393.853h-75.741v75.741h-12.119v-103.008h127.245z" fill="none" stroke="#e2000f" stroke-miterlimit="2.9238" stroke-width="7.39" transform="matrix(.264583 0 0 .264583 -1345.79 10413.6)"/><path d="m873.007 608.957v-81.8l-12.119 12.118v84.83z" fill="#fff" fill-rule="nonzero" transform="matrix(.264583 0 0 .264583 -1345.79 10413.6)"/><path d="m873.007 608.957v-81.8l-12.119 12.118v84.83z" fill="none" stroke="#e2000f" stroke-miterlimit="2.9238" stroke-width="7.39" transform="matrix(.264583 0 0 .264583 -1345.79 10413.6)"/><path d="m-1185.8 10510.6v71.3h58.52l-16.84-28.9s12.03-4.8 12.03-16.8-8.82-25.6-27.26-25.6zm19.24 27.2v-7.2h7.21c1.61 0 3.21 1.6 3.21 3.2s-1.6 3.2-3.21 3.2h-7.21z" fill="#e2000f"/><path d="m-1185.8 10510.6v71.3h58.52l-16.84-28.9s12.03-4.8 12.03-16.8-8.82-25.6-27.26-25.6zm19.24 27.2v-7.2h7.21c1.61 0 3.21 1.6 3.21 3.2s-1.6 3.2-3.21 3.2h-7.21z" fill="none" stroke="#e2000f" stroke-miterlimit="2.9238" stroke-width="1.96"/><path d="m-1154.54 10517.8h-24.04v57.7l-7.22 6.4v-71.3h32.07c1.6 0 3.2 1.6 3.2 3.2s-1.6 3.2-3.2 3.2z" fill="#fff" fill-rule="nonzero"/><path d="m-1154.54 10517.8h-24.04v57.7l-7.22 6.4v-71.3h32.07c1.6 0 3.2 1.6 3.2 3.2s-1.6 3.2-3.2 3.2z" fill="none" stroke="#e2000f" stroke-miterlimit="2.9238" stroke-width="1.96"/><path d="m703.347 608.957v-81.8l-15.148 12.118v84.83z" fill="#fff" fill-rule="nonzero" transform="matrix(.264583 0 0 .264583 -1345.79 10413.6)"/><path d="m703.347 608.957v-81.8l-15.148 12.118v84.83z" fill="none" stroke="#e2000f" stroke-miterlimit="2.9238" stroke-width="7.39" transform="matrix(.264583 0 0 .264583 -1345.79 10413.6)"/><path d="m-1159.35 10553h-7.21v21.7h-12.02v-56.9h19.23s20.85-.8 20.85 18.4c0 7.2-8.82 12.8-15.23 13.6l15.23 25.7h-20.85z" fill="#ffec00" fill-rule="nonzero"/><path d="m-1159.35 10553h-7.21v21.7h-12.02v-56.9h19.23s20.85-.8 20.85 18.4c0 7.2-8.82 12.8-15.23 13.6l15.23 25.7h-20.85z" fill="none" stroke="#e2000f" stroke-miterlimit="2.9238" stroke-width="1.96"/><path d="m-1166.56 10537.8v-7.2h7.21c1.61 0 3.21 1.6 3.21 3.2s-1.6 3.2-3.21 3.2h-7.21z" fill="#e2000f" fill-rule="nonzero"/><path d="m-1166.56 10537.8v-7.2h7.21c1.61 0 3.21 1.6 3.21 3.2s-1.6 3.2-3.21 3.2h-7.21z" fill="none" stroke="#e2000f" stroke-miterlimit="2.9238" stroke-width="1.96"/><path d="m-1253.13 10545.8c0-20.8 16.83-36.8 36.87-36.8 20.84 0 36.88 16.8 36.88 36.8 0 20.9-16.84 36.9-36.88 36.9-20.04.8-36.87-16-36.87-36.9zm29.66 0c0-4 3.2-7.2 7.21-7.2s7.22 3.2 7.22 7.2-3.21 7.2-7.22 7.2-7.21-3.2-7.21-7.2z" fill="#e2000f"/><path d="m-1253.13 10545.8c0-20.8 16.83-36.8 36.87-36.8 20.84 0 36.88 16.8 36.88 36.8 0 20.9-16.84 36.9-36.88 36.9-20.04.8-36.87-16-36.87-36.9zm29.66 0c0-4 3.2-7.2 7.21-7.2s7.22 3.2 7.22 7.2-3.21 7.2-7.22 7.2-7.21-3.2-7.21-7.2z" fill="none" stroke="#e2000f" stroke-miterlimit="2.9238" stroke-width="1.96"/><path d="m-1245.92 10545.8c0-16.8 13.63-30.4 30.46-30.4 16.84 0 30.46 13.6 30.46 30.4 0 16.9-13.62 30.5-30.46 30.5-16.83 0-30.46-13.6-30.46-30.5zm16.04 0c0-8 6.41-14.4 14.42-14.4 8.02 0 14.43 6.4 14.43 14.4s-6.41 14.5-14.43 14.5c-8.01 0-14.42-6.5-14.42-14.5z" fill="#ffec00"/><path d="m-1245.92 10545.8c0-16.8 13.63-30.4 30.46-30.4 16.84 0 30.46 13.6 30.46 30.4 0 16.9-13.62 30.5-30.46 30.5-16.83 0-30.46-13.6-30.46-30.5zm16.04 0c0-8 6.41-14.4 14.42-14.4 8.02 0 14.43 6.4 14.43 14.4s-6.41 14.5-14.43 14.5c-8.01 0-14.42-6.5-14.42-14.5z" fill="none" stroke="#e2000f" stroke-miterlimit="2.9238" stroke-width="1.96"/><path d="m-1234.69 10578.7c-17.64-10.4-24.05-32.9-13.63-50.5s32.86-24.1 50.5-13.6c1.6.8 2.4 3.2 1.6 4.8s-3.2 2.4-4.81 1.6c-14.43-8-32.86-3.2-40.88 11.2-8.01 14.4-3.21 32.9 11.22 40.9 1.61.8 2.41 3.2 1.61 4.8-1.61.8-4.01 1.6-5.61.8z" fill="#fff"/><path d="m-1234.69 10578.7c-17.64-10.4-24.05-32.9-13.63-50.5s32.86-24.1 50.5-13.6c1.6.8 2.4 3.2 1.6 4.8s-3.2 2.4-4.81 1.6c-14.43-8-32.86-3.2-40.88 11.2-8.01 14.4-3.21 32.9 11.22 40.9 1.61.8 2.41 3.2 1.61 4.8-1.61.8-4.01 1.6-5.61.8z" fill="none" stroke="#e2000f" stroke-miterlimit="2.9238" stroke-width="1.96"/><path d="m-1222.67 10557.8c-1.6-.8-2.41-3.2-1.6-4.8.8-1.6 3.2-1.6 4.81-.8 3.2 1.6 8.01.8 9.61-2.4 1.61-3.2.81-7.2-2.4-9.6-1.6-.8-2.4-3.2-1.6-4.8s3.2-2.4 4.81-1.6c6.41 4 9.62 12 5.61 19.2-4.01 7.3-12.83 9.7-19.24 4.8z" fill="#fff" fill-rule="nonzero"/><g stroke="#e2000f" stroke-miterlimit="2.9238"><path d="m-1222.67 10557.8c-1.6-.8-2.41-3.2-1.6-4.8.8-1.6 3.2-1.6 4.81-.8 3.2 1.6 8.01.8 9.61-2.4 1.61-3.2.81-7.2-2.4-9.6-1.6-.8-2.4-3.2-1.6-4.8s3.2-2.4 4.81-1.6c6.41 4 9.62 12 5.61 19.2-4.01 7.3-12.83 9.7-19.24 4.8z" fill="none" stroke-width="1.96"/><path d="m-933.296 10593.9v-83.3h21.643s28.857-3.3 28.857 25.6c0 20-21.643 23.3-21.643 23.3v22.4z" fill="#e2000f" fill-rule="nonzero" stroke-width=".91"/><path d="m-926.082 10517.8v66.5l14.429-5.6v-24.1s21.643-.8 21.643-17.6c0-19.2-14.429-19.2-14.429-19.2z" fill="#ffec00" fill-rule="nonzero" stroke-width=".91"/><path d="m-933.296 10593.9v-83.3h21.643s9.619-.8 9.619 3.2-2.405 4-2.405 4h-21.643v66.5z" fill="#fff" fill-rule="nonzero" stroke-width=".91"/><path d="m-911.653 10530.6s7.214-1.6 7.214 4.8-7.214 4.8-7.214 4.8z" fill="#e2000f" fill-rule="nonzero" stroke-width=".91"/><path d="m1327.45 366.586h-99.98v75.741h-12.11v-75.741h-99.98v269.638h99.98v-81.8h12.11v81.8h99.98z" fill="#e2000f" fill-rule="nonzero" stroke-width="3.45" transform="matrix(.264583 0 0 .264583 -1345.79 10413.6)"/><path d="m1300.18 393.853h-45.44v75.741h-66.65v-75.741h-48.47v215.104h48.47v-81.8h66.65v81.8h45.44z" fill="#ffec00" fill-rule="nonzero" stroke-width="3.45" transform="matrix(.264583 0 0 .264583 -1345.79 10413.6)"/><path d="m1188.09 393.853h-48.47v215.104l-24.24 27.267v-269.638h99.98z" fill="#fff" fill-rule="nonzero" stroke-width="3.45" transform="matrix(.264583 0 0 .264583 -1345.79 10413.6)"/><path d="m1227.47 366.586h99.98l-27.27 27.267h-45.44v75.741h-66.65l27.27-27.267h12.11z" fill="#fff" fill-rule="nonzero" stroke-width="3.45" transform="matrix(.264583 0 0 .264583 -1345.79 10413.6)"/><path d="m1254.74 608.957v-81.8l-27.27 27.267v81.8z" fill="#fff" fill-rule="nonzero" stroke-width="3.45" transform="matrix(.264583 0 0 .264583 -1345.79 10413.6)"/><path d="m-1097.62 10581.9h28.85s24.85 0 24.85-25.7c0-8.8-3.2-14.4-7.21-18.4l11.22-27.2h-28.86s-22.44 0-22.44 25.6c0 8 2.4 13.6 5.61 16.8h-12.02z" fill="#e2000f" stroke-width=".91"/><path d="m-1061.55 10537.8c-1.6 0-3.21-1.6-3.21-3.2s1.61-3.2 3.21-3.2h5.61l5.61-13.6h-18.44s-15.23 0-15.23 18.4c0 12.8 7.22 16 12.03 16.8 1.6 0 3.2 1.6 3.2 3.2s-1.6 3.3-3.2 3.3h-25.65l7.21 15.2h21.64s17.64 0 17.64-18.5c0-11.2-6.41-16-11.22-18.4z" fill="#ffec00" stroke-width=".91"/><path d="m-1097.62 10560.3 7.21 15.2-7.21 6.4v-28.9h12.02c4.81 4.8 10.42 6.5 14.43 6.5z" fill="#fff" stroke-width=".91"/><path d="m-1081.59 10546.6c-1.6-2.4-2.41-6.4-2.41-11.2 0-20 19.24-18.4 15.23-18.4-3.2 0 18.44 0 18.44 0l10.42-7.2h-28.86s-22.44 0-22.44 25.6c0 6.4 1.6 11.2 4.01 14.4.8.8 1.6 1.6 3.2 1.6 1.61 0 3.21-1.6 3.21-3.2 0 0-.8-.8-.8-1.6z" fill="#fff" stroke-width=".91"/><path d="m242.842 636.224h54.534l115.126-269.638h-145.423v36.356l-36.355-36.356-33.326 33.326v-33.326h-148.453l115.127 269.638h54.533l12.119-27.267z" fill="#e2000f" fill-rule="nonzero" stroke-width="3.45" transform="matrix(.264583 0 0 .264583 -1345.79 10413.6)"/><path d="m-1322.07 10517.8 24.05 56.1" fill="none" stroke-width=".91"/><path d="m282.227 608.957h-24.237l-27.266-54.533-27.267 54.533h-24.237l-90.889-215.104h75.741v87.859l66.652-69.681 66.652 69.681v-87.859h75.741z" fill="#ffec00" fill-rule="nonzero" stroke-width="3.45" transform="matrix(.264583 0 0 .264583 -1345.79 10413.6)"/><path d="m197.398 366.586h-148.453l115.127 269.638 15.148-27.267-90.889-215.104h75.741z" fill="#fff" fill-rule="nonzero" stroke-width="3.45" transform="matrix(.264583 0 0 .264583 -1345.79 10413.6)"/><path d="m197.398 399.912 33.326-33.326v45.445l-66.652 69.681z" fill="#fff" fill-rule="nonzero" stroke-width="3.45" transform="matrix(.264583 0 0 .264583 -1345.79 10413.6)"/><path d="m267.079 366.586v36.356l30.297 78.77v-87.859h75.741l39.385-27.267z" fill="#fff" fill-rule="nonzero" stroke-width="3.45" transform="matrix(.264583 0 0 .264583 -1345.79 10413.6)"/><path d="m-1178.58 10465.7h-1.61s-2.4-30.5-28.85-30.5c-27.26 0-29.66 21.6-29.66 37.7 0 15.2 6.41 33.6 29.66 33.6h30.46z" fill="#e2000f" fill-rule="nonzero" stroke-width=".91"/><path d="m-1185.8 10499.3h-23.24s-22.45 3.2-22.45-27.2c0-30.5 15.23-30.5 22.45-30.5 8.01 0 21.64 8 21.64 23.3h-14.43s0-7.3-8.02-7.3c-8.01 0-6.41 7.3-6.41 7.3v12.8s-1.6 7.2 6.41 7.2h10.43v-7.2h-3.21v-4.8h15.23v26.4z" fill="#ffec00" fill-rule="nonzero" stroke-width=".91"/><path d="m-1185.8 10472.9 5.61-7.2h-28.85v12s-.81 7.2 10.42 7.2v-7.2h-3.21v-4.8z" fill="#fff" stroke-width=".91"/><path d="m-1226.68 10492.1c.8 1.6.8 4-.8 4.8s-4.01.8-4.81-.8c-4.81-6.4-6.41-15.2-6.41-23.2 0-15.3 3.2-37.7 29.66-37.7 4 0 8.01.8 10.42 2.4 1.6.8 2.4 3.2 1.6 4.8s-2.4 2.4-4.81 1.6c-3.21-1.6-5.61-1.6-8.02-1.6-8.01 0-22.44 0-22.44 30.5 0 8.8 2.41 15.2 5.61 19.2z" fill="#fff" fill-rule="nonzero" stroke-width=".91"/><path d="m876.036 351.438h-293.874l42.414-27.267 103.008-206.015v-54.534z" fill="#e2000f" fill-rule="nonzero" stroke-width="3.45" transform="matrix(.264583 0 0 .264583 -1345.79 10413.6)"/><path d="m727.584 118.156 103.008 206.015h-206.016z" fill="#ffec00" fill-rule="nonzero" stroke-width="3.45" transform="matrix(.264583 0 0 .264583 -1345.79 10413.6)"/><path d="m727.584 63.622-145.422 287.816 42.414-27.267 103.008-206.015z" fill="#fff" fill-rule="nonzero" stroke-width="3.45" transform="matrix(.264583 0 0 .264583 -1345.79 10413.6)"/><path d="m727.584 212.075 36.356 69.681h-72.712z" fill="#e2000f" fill-rule="nonzero" stroke-width="3.45" transform="matrix(.264583 0 0 .264583 -1345.79 10413.6)"/><path d="m727.584 260.549 36.356 21.207h-72.712z" fill="#fff" fill-rule="nonzero" stroke-width="3.45" transform="matrix(.264583 0 0 .264583 -1345.79 10413.6)"/><path d="m966.925 81.8-45.444 99.978-45.445-99.978-124.215 269.638h339.319z" fill="#e2000f" fill-rule="nonzero" stroke-width="3.45" transform="matrix(.264583 0 0 .264583 -1345.79 10413.6)"/><path d="m794.236 324.171 81.8-175.719v-66.652l-124.215 269.638z" fill="#fff" fill-rule="nonzero" stroke-width="3.45" transform="matrix(.264583 0 0 .264583 -1345.79 10413.6)"/><path d="m921.481 181.778v66.652l45.444-99.978v-66.652z" fill="#fff" fill-rule="nonzero" stroke-width="3.45" transform="matrix(.264583 0 0 .264583 -1345.79 10413.6)"/><path d="m794.236 324.171h36.356l-18.178-36.355z" fill="#ffec00" fill-rule="nonzero" stroke-width="3.45" transform="matrix(.264583 0 0 .264583 -1345.79 10413.6)"/><path d="m921.481 248.43 45.444-99.978 81.805 175.719h-112.101l21.207-42.415-36.355 21.208-36.356-21.208 21.208 42.415h-42.415l-36.356-66.652 48.474-109.067z" fill="#ffec00" fill-rule="nonzero" stroke-width="3.45" transform="matrix(.264583 0 0 .264583 -1345.79 10413.6)"/><path d="m-1031.89 10435.2s-42.49 0-42.49 35.3c0 39.3 42.49 36 42.49 36h7.21v-71.3z" fill="#e2000f" fill-rule="nonzero" stroke-width=".91"/><path d="m-1031.89 10499.3c-21.65 0-35.27-8-35.27-28.8" fill="none" stroke-width=".91"/><path d="m-1043.92 10462.5h9.62c.8 0 1.61.8 1.61 1.6s-.81 1.6-1.61 1.6h-9.62c-.8 0-1.6-.8-1.6-1.6s.8-1.6 1.6-1.6z" fill="#fff" fill-rule="nonzero" stroke-width=".91"/><path d="m-1043.92 10480.9h9.62c.8 0 1.61.8 1.61 1.6s-.81 1.6-1.61 1.6h-9.62c-.8 0-1.6-.8-1.6-1.6s.8-1.6 1.6-1.6z" fill="#fff" fill-rule="nonzero" stroke-width=".91"/><path d="m-1031.89 10499.3v-15.2h-12.83c-2.4 0-4-1.6-4-4s1.6-4 4-4h12.83v-10.4h-12.83c-2.4 0-4-1.6-4-4s1.6-4.1 4-4.1h12.83v-15.2c-16.03 0-35.27 7.2-35.27 28.1-.8 21.6 12.82 28.8 35.27 28.8z" fill="#ffec00" stroke-width=".91"/><path d="m-1025.48 10435.2h-7.21s-42.49 0-42.49 35.3c0 12.8 4.01 20.8 10.42 26.4.81.8 1.61 1.6 3.21 1.6s3.21-1.6 3.21-3.2c0-.8 0-1.6-.81-2.4-5.61-4.8-8.81-11.2-8.81-21.6 0-20.9 19.24-28.1 35.27-28.1z" fill="#fff" stroke-width=".91"/><path d="m-1028.69 10506.5h28.862s24.849 0 24.849-25.6c0-8.8-3.206-14.4-7.214-18.4h5.611v-27.3h-23.246s-22.442 0-22.442 25.7c0 8 2.4 13.6 5.61 16.8h-12.03z" fill="#e2000f" stroke-width=".91"/><path d="m-992.614 10463.3c-1.603 0-3.206-1.6-3.206-3.2s1.603-3.3 3.206-3.3h10.421v-14.4h-17.635s-15.232 0-15.232 18.5c0 12.8 7.22 16 12.03 16.8 1.6 0 3.202 1.6 3.202 3.2s-1.602 3.2-3.202 3.2h-18.44v15.2h21.642s17.635 0 17.635-18.4c0-11.2-6.413-16-11.223-18.4z" fill="#ffec00" stroke-width=".91"/><path d="m-1021.47 10484.9v15.2l-7.22 7.2v-29.6h12.03c4.81 4.8 10.42 6.4 14.43 7.2z" fill="#fff" fill-rule="nonzero" stroke-width=".91"/><path d="m-1019.07 10475.3c.81.8 1.61 1.6 2.41 2.4" fill="none" stroke-width=".91"/><path d="m-1012.65 10472.1c-1.61-2.4-2.41-6.4-2.41-11.2 0-20.1 19.24-18.5 15.232-18.5-3.202 0 17.635 0 17.635 0l5.611-7.2h-23.246s-22.442 0-22.442 25.7c0 6.4 1.6 11.2 4.01 14.4.8.8 1.6 1.6 3.2 1.6s3.21-1.6 3.21-3.2c0-.8-.8-1.6-.8-1.6z" fill="#fff" stroke-width=".91"/></g><path d="m-1000.63 10545.8c0-20.8 16.834-36.8 36.873-36.8 20.842 0 36.874 16.8 36.874 36.8 0 20.9-16.834 36.9-36.874 36.9-20.039.8-36.873-16-36.873-36.9zm30.461 0c0-4 3.206-7.2 7.214-7.2s7.214 3.2 7.214 7.2-3.206 7.2-7.214 7.2-7.214-3.2-7.214-7.2z" fill="#e2000f"/><path d="m-1000.63 10545.8c0-20.8 16.834-36.8 36.873-36.8 20.842 0 36.874 16.8 36.874 36.8 0 20.9-16.834 36.9-36.874 36.9-20.039.8-36.873-16-36.873-36.9zm30.461 0c0-4 3.206-7.2 7.214-7.2s7.214 3.2 7.214 7.2-3.206 7.2-7.214 7.2-7.214-3.2-7.214-7.2z" fill="none" stroke="#e2000f" stroke-miterlimit="2.9238" stroke-width=".91"/><path d="m-993.416 10545.8c0-16.8 13.628-30.4 30.461-30.4s30.46 13.6 30.46 30.4c0 16.9-13.627 30.5-30.46 30.5s-30.461-13.6-30.461-30.5zm16.032 0c0-8 6.413-14.4 14.429-14.4s14.429 6.4 14.429 14.4-6.413 14.5-14.429 14.5-14.429-6.5-14.429-14.5z" fill="#ffec00"/><path d="m-993.416 10545.8c0-16.8 13.628-30.4 30.461-30.4s30.46 13.6 30.46 30.4c0 16.9-13.627 30.5-30.46 30.5s-30.461-13.6-30.461-30.5zm16.032 0c0-8 6.413-14.4 14.429-14.4s14.429 6.4 14.429 14.4-6.413 14.5-14.429 14.5-14.429-6.5-14.429-14.5z" fill="none" stroke="#e2000f" stroke-miterlimit="2.9238" stroke-width=".91"/><path d="m-981.392 10577.9c-17.635-10.4-24.048-32.9-13.627-50.5s32.866-24.1 50.501-13.6c1.603.8 2.404 3.2 1.603 4.8-.802 1.6-3.207 2.4-4.81 1.6-14.428-8-32.865-3.2-40.881 11.2s-3.206 32.9 11.222 40.9c1.604.8 2.405 3.2 1.604 4.8-2.405 1.6-4.008 2.4-5.611.8z" fill="#fff" stroke="#e2000f" stroke-miterlimit="2.9238" stroke-width=".91"/><path d="m-970.169 10557.8c-1.604-.8-2.405-3.2-1.604-4.8.802-1.6 3.207-1.6 4.81-.8 3.206 1.6 8.016.8 9.619-2.4s.802-7.2-2.405-9.6c-1.603-.8-2.405-3.2-1.603-4.8s3.206-2.4 4.81-1.6c6.412 4 9.619 12 5.611 19.2-4.008 7.3-12.826 9.7-19.238 4.8z" fill="#fff" fill-rule="nonzero" stroke="#e2000f" stroke-miterlimit="2.9238" stroke-width=".91"/><path d="m988.133 366.586h-209.045v269.638h209.045l-66.652-136.334z" fill="#e2000f" fill-rule="nonzero" stroke="#e2000f" stroke-miterlimit="2.9238" stroke-width="3.45" transform="matrix(.264583 0 0 .264583 -1345.79 10413.6)"/><path d="m845.74 608.957h-39.385v-215.104h39.385v75.741h27.267v-75.741h75.741l-57.564 103.007 54.534 112.097h-72.711v-81.8h-27.267z" fill="#ffec00" fill-rule="nonzero" stroke="#e2000f" stroke-miterlimit="2.9238" stroke-width="3.45" transform="matrix(.264583 0 0 .264583 -1345.79 10413.6)"/><path d="m845.74 393.853h-39.385v215.104l-27.267 27.267v-269.638h81.8z" fill="#fff" fill-rule="nonzero" stroke="#e2000f" stroke-miterlimit="2.9238" stroke-width="3.45" transform="matrix(.264583 0 0 .264583 -1345.79 10413.6)"/><path d="m948.748 393.853h-75.741v75.741h-12.119v-103.008h127.245z" fill="#fff" fill-rule="nonzero" stroke="#e2000f" stroke-miterlimit="2.9238" stroke-width="3.45" transform="matrix(.264583 0 0 .264583 -1345.79 10413.6)"/><path d="m873.007 608.957v-81.8l-12.119 12.118v84.83z" fill="#fff" fill-rule="nonzero" stroke="#e2000f" stroke-miterlimit="2.9238" stroke-width="3.45" transform="matrix(.264583 0 0 .264583 -1345.79 10413.6)"/><path d="m-1185.8 10510.6v71.3h58.52l-16.84-28.9s12.03-4.8 12.03-16.8-8.82-25.6-27.26-25.6zm19.24 27.2v-7.2h7.21c1.61 0 3.21 1.6 3.21 3.2s-1.6 3.2-3.21 3.2h-7.21z" fill="#e2000f"/><path d="m-1185.8 10510.6v71.3h58.52l-16.84-28.9s12.03-4.8 12.03-16.8-8.82-25.6-27.26-25.6zm19.24 27.2v-7.2h7.21c1.61 0 3.21 1.6 3.21 3.2s-1.6 3.2-3.21 3.2h-7.21z" fill="none" stroke="#e2000f" stroke-miterlimit="2.9238" stroke-width=".91"/><path d="m-1154.54 10517.8c-2.4-.8-4.81-.8-4.81-.8h-19.23v57.7l-7.22 7.2v-71.3h32.07c1.6 0 3.2 1.6 3.2 3.2s-1.6 3.2-3.2 3.2z" fill="#fff" fill-rule="nonzero" stroke="#e2000f" stroke-miterlimit="2.9238" stroke-width=".91"/><path d="m703.347 608.957v-81.8l-15.148 12.118v84.83z" fill="#fff" fill-rule="nonzero" stroke="#e2000f" stroke-miterlimit="2.9238" stroke-width="3.45" transform="matrix(.264583 0 0 .264583 -1345.79 10413.6)"/><path d="m-1159.35 10553h-7.21v21.7h-12.02v-56.9h19.23s20.85-.8 20.85 18.4c0 7.2-8.82 12.8-15.23 13.6l15.23 25.7h-20.85z" fill="#ffec00" fill-rule="nonzero" stroke="#e2000f" stroke-miterlimit="2.9238" stroke-width=".91"/><path d="m-1166.56 10537.8v-7.2h7.21c1.61 0 3.21 1.6 3.21 3.2s-1.6 3.2-3.21 3.2h-7.21z" fill="#e2000f" fill-rule="nonzero" stroke="#e2000f" stroke-miterlimit="2.9238" stroke-width=".91"/><path d="m-1253.13 10545.8c0-20.8 16.83-36.8 36.87-36.8 20.84 0 36.88 16.8 36.88 36.8 0 20.9-16.84 36.9-36.88 36.9-20.04.8-36.87-16-36.87-36.9zm29.66 0c0-4 3.2-7.2 7.21-7.2s7.22 3.2 7.22 7.2-3.21 7.2-7.22 7.2-7.21-3.2-7.21-7.2z" fill="#e2000f"/><path d="m-1253.13 10545.8c0-20.8 16.83-36.8 36.87-36.8 20.84 0 36.88 16.8 36.88 36.8 0 20.9-16.84 36.9-36.88 36.9-20.04.8-36.87-16-36.87-36.9zm29.66 0c0-4 3.2-7.2 7.21-7.2s7.22 3.2 7.22 7.2-3.21 7.2-7.22 7.2-7.21-3.2-7.21-7.2z" fill="none" stroke="#e2000f" stroke-miterlimit="2.9238" stroke-width=".91"/><path d="m-1245.92 10545.8c0-16.8 13.63-30.4 30.46-30.4 16.84 0 30.46 13.6 30.46 30.4 0 16.9-13.62 30.5-30.46 30.5-16.83 0-30.46-13.6-30.46-30.5zm16.04 0c0-8 6.41-14.4 14.42-14.4 8.02 0 14.43 6.4 14.43 14.4s-6.41 14.5-14.43 14.5c-8.01 0-14.42-6.5-14.42-14.5z" fill="#ffec00"/><path d="m-1245.92 10545.8c0-16.8 13.63-30.4 30.46-30.4 16.84 0 30.46 13.6 30.46 30.4 0 16.9-13.62 30.5-30.46 30.5-16.83 0-30.46-13.6-30.46-30.5zm16.04 0c0-8 6.41-14.4 14.42-14.4 8.02 0 14.43 6.4 14.43 14.4s-6.41 14.5-14.43 14.5c-8.01 0-14.42-6.5-14.42-14.5z" fill="none" stroke="#e2000f" stroke-miterlimit="2.9238" stroke-width=".91"/><path d="m-1234.69 10577.9c-17.64-10.4-24.05-32.9-13.63-50.5s32.86-24.1 50.5-13.6c1.6.8 2.4 3.2 1.6 4.8s-3.2 2.4-4.81 1.6c-14.43-8-32.86-3.2-40.88 11.2-8.01 14.4-3.21 32.9 11.22 40.9 1.61.8 2.41 3.2 1.61 4.8-1.61 1.6-4.01 2.4-5.61.8z" fill="#fff" stroke="#e2000f" stroke-miterlimit="2.9238" stroke-width=".91"/><path d="m-1222.67 10557.8c-1.6-.8-2.41-3.2-1.6-4.8.8-1.6 3.2-1.6 4.81-.8 3.2 1.6 8.01.8 9.61-2.4 1.61-3.2.81-7.2-2.4-9.6-1.6-.8-2.4-3.2-1.6-4.8s3.2-2.4 4.81-1.6c6.41 4 9.62 12 5.61 19.2-4.01 7.3-12.83 9.7-19.24 4.8z" fill="#fff" fill-rule="nonzero" stroke="#e2000f" stroke-miterlimit="2.9238" stroke-width=".91"/><path d="m403.413 375.675 6.059-9.089h-12.118v9.089z" fill="#e2000f" fill-rule="nonzero" transform="matrix(.264583 0 0 .264583 -1345.79 10413.6)"/><path d="m233.753 372.645-6.059-3.029-3.03 3.029 6.06 3.03z" fill="#e2000f" fill-rule="nonzero" transform="matrix(.264583 0 0 .264583 -1345.79 10413.6)"/><path d="m194.368 366.586h-15.148v9.089z" fill="#e2000f" fill-rule="nonzero" transform="matrix(.264583 0 0 .264583 -1345.79 10413.6)"/><path d="m748.792 539.275 30.296 9.089-12.119-33.326z" fill="#e2000f" fill-rule="nonzero" transform="matrix(.264583 0 0 .264583 -1345.79 10413.6)"/><path d="m766.969 524.127 9.089 21.208v-24.237z" fill="#fff" fill-rule="nonzero" transform="matrix(.264583 0 0 .264583 -1345.79 10413.6)"/><path d="m-881.193 10518.6c0-8 6.413-14.5 14.429-14.5s14.429 6.5 14.429 14.5-6.413 14.4-14.429 14.4-14.429-6.4-14.429-14.4z" fill="#1a1a18" fill-rule="nonzero"/><path d="m-865.962 10530.6c-6.413 0-12.024-4-12.024-12s5.611-12.1 12.024-12.1c6.412 0 12.023 4.1 12.023 12.1s-6.412 12-12.023 12zm0-20.8c-4.81 0-8.818 4-8.818 8.8 0 5.6 4.008 8.8 8.818 8.8 4.809 0 8.015-4 8.015-8.8 0-5.6-4.008-8.8-8.015-8.8zm-2.405 15.2h-2.405v-12.8h4.81c3.206 0 4.809.8 4.809 4 0 2.4-1.603 3.2-3.206 3.2l3.206 5.6h-3.206l-3.207-5.6h-1.603v5.6zm2.405-7.2c1.603 0 1.603 0 1.603-1.6s-1.603-1.6-2.405-1.6h-1.603v3.2z" fill="#fff" fill-rule="nonzero"/></g></svg>